<svg width="82" height="33" viewBox="0 0 82 33" fill="none" xmlns="http://www.w3.org/2000/svg">
<path d="M41.4512 13.5027C41.0504 13.5391 40.7932 13.248 40.9131 12.8679C41.366 11.4321 42.767 8.16068 46.4036 6.72581C51.4448 4.7373 56.8587 10.4027 52.9614 11.4063C49.8232 12.2161 43.5974 13.3082 41.4512 13.5027ZM41.7048 23.8236C40.7992 19.9922 45.2779 19.2399 45.2779 19.2399L53.1987 17.9285C53.5949 17.8623 53.9312 18.1317 53.9496 18.5292L54.0383 20.4533C54.1121 23.9444 53.0278 24.6742 51.7623 25.4491C50.0981 26.4679 42.7018 28.0429 41.7048 23.8236ZM14.4909 19.8052C14.3807 19.4221 14.6472 19.1043 15.0485 19.1043H30.3732C30.775 19.1043 31.0417 19.4221 30.9319 19.8052C29.9126 23.354 26.6191 25.9533 22.711 25.9533C18.803 25.9533 15.5092 23.354 14.4909 19.8052ZM28.1768 11.8454C28.2648 12.2343 27.9738 12.556 27.5717 12.556H15.2439C14.8417 12.556 14.5505 12.2343 14.6389 11.8454C15.337 8.77832 18.1015 6.48759 21.4073 6.48759C24.714 6.48759 27.4782 8.77832 28.1768 11.8454ZM68.1335 25.9862C63.4839 25.9793 61.9446 23.6328 61.9403 20.6975C61.9403 19.6315 61.9403 9.25891 61.9403 8.01129C61.9403 5.51818 59.9814 0.370144 48.9854 0.119831C39.9845 -0.0851707 36.2777 5.16365 35.2283 7.07595C35.0367 7.42514 34.7639 7.43403 34.5709 7.08393C31.5488 1.62023 27.254 0.119164 21.4682 0.119164C13.8106 0.119164 8.473 5.13549 6.85613 11.9864C6.76508 12.3743 6.37922 12.6919 5.97743 12.6919H3.09353C1.39173 12.6919 0 14.0712 0 15.7576V15.9217C0 17.6083 1.39173 18.9875 3.09353 18.9875H5.78653C6.18871 18.9875 6.55713 19.3075 6.62778 19.6999C7.98393 27.2055 14.0628 32.8627 22.196 32.8627C26.8343 32.8627 30.7712 31.4848 33.7441 29.1876C34.061 28.9422 34.5179 28.9796 34.799 29.2624C36.7065 31.1811 40.0275 33 45.7624 33C50.1279 33 53.4449 31.4196 55.9039 29.396C56.2132 29.1413 56.6796 29.1567 56.973 29.4288C59.9676 32.2054 65.9331 35.4635 74.6427 29.8062C74.6711 29.7876 74.6984 29.7698 74.7261 29.7513C74.7339 31.4308 76.1221 32.803 77.819 32.803H78.9071C80.6086 32.803 82 31.4233 82 29.7375V3.06445C82 1.37828 80.6086 -0.00140762 78.9071 -0.00140762H77.819C76.1175 -0.00140762 74.7257 1.37828 74.7257 3.06445V20.4016C74.7584 21.4856 73.7124 25.994 68.1335 25.9862Z" fill="#65ABDC"/>
</svg>
